<svg viewBox="0 0 61.58 15.35" xmlns="http://www.w3.org/2000/svg"><path d="m0 0h61.58v15.35h-61.58z" fill="#ffed00"/><g fill="#005aa1"><path d="m8.68 6.69a1.81 1.81 0 0 0 1.61-1.89c0-1.8-1.29-2.18-2.75-2.18h-3.54v8.46h3.5c.84 0 2.93-.09 2.93-2.24.02-1.16-.35-1.97-1.75-2.15zm-2.5-2.76h1a1 1 0 0 1 1.02 1.07c0 .82-.52 1.08-.89 1.08h-1.13zm.94 5.86h-.94v-2.39h1c.85 0 1.12.46 1.12 1.21-.01 1.16-.82 1.17-1.18 1.17zm16.97-3.84a.7.7 0 0 1 .8-.74h1.63v-1.07h-2.3c-1.88 0-2.34.84-2.34 1.92 0 2.06 3.37 2 3.37 3.17a.71.71 0 0 1 -.78.79h-2.41l-1.78-5.87h-2.14l-2 6.3-1.21-2.71c.9-.17 1.27-.74 1.27-1.74a1.66 1.66 0 0 0 -1.82-1.81h-3.38v6.92h1.83v-5.9h.61a1 1 0 0 1 1 1.05c0 .58-.29 1.05-.76 1h-.51l1.66 3.78h2.92l.44-1.53h1.89l.43 1.53h4.25c1.17 0 2.36-.15 2.36-1.95 0-2.04-3.03-1.83-3.03-3.14zm-5.64 2.53.64-2.83.71 2.83zm19.62-4.39h-2.93v7h1.86v-2.86h1c1.91 0 2.16-1.26 2.16-2a1.84 1.84 0 0 0 -2.09-2.14zm-.4 3.06h-.67v-2h.63c.37 0 .8.3.8 1.05a1 1 0 0 1 -.76.96z"/><path d="m27.72 4.15h1.78v6.92h-1.78zm4.61 0h-1.78v6.92h3.86v-1.05h-2.08zm15.97 3.79h2.29v-1.07h-2.29v-1.7h2.49v-1.07h-4.29v6.93h4.38v-1.07h-2.58z"/><path d="m45.8 5.92a1.67 1.67 0 0 0 -1.8-1.82h-3.39v7h1.84v-5.93h.61a1 1 0 0 1 1 1.06c0 .58-.29 1.06-.77 1h-.51l1.67 3.8h1.63l-1.56-3.31c.92-.17 1.28-.72 1.28-1.8z"/><path d="m55.42 4.1-1.15 5.06h-.02l-1.05-5.06h-1.89l1.81 6.96h2.12l1.94-6.96z"/></g></svg>